[   0s] CDP targets: 1
[   0s]   page: file:///Users/runner/.comfy-test-cache/desktop/ComfyUI.app/Contents/Resources/desktop-ui/index.html#/welcome | ComfyUI
[   1s] Main page: file:///Users/runner/.comfy-test-cache/desktop/ComfyUI.app/Contents/Resources/desktop-ui/index.html#/welcome | ComfyUI
[   1s] Buttons: ['Get Started']
[   2s]   wizard: COMFY_TEST_GPU=0 platform=darwin preferred=['Apple Silicon', 'MPS', 'M4', 'M3', 'M2', 'M1']
[   2s]   clicked [BTN|Get Started]
[   4s]   url: file:///Users/runner/.comfy-test-cache/desktop/ComfyUI.app/Contents/Resources/desktop-ui/index.html#/welcome -> file:///Users/runner/.comfy-test-cache/desktop/ComfyUI.app/Contents/Resources/desktop-ui/index.html#/install
[   5s]   clicked [BTN|Next]
[  11s]   clicked [BTN|Next]
[  13s]   clicked [BTN|Install]
[  14s]   url: file:///Users/runner/.comfy-test-cache/desktop/ComfyUI.app/Contents/Resources/desktop-ui/index.html#/install -> file:///Users/runner/.comfy-test-cache/desktop/ComfyUI.app/Contents/Resources/desktop-ui/index.html#/server-start
[  80s]   /system_stats up after 78s
[  80s]   app: waiting for backend stability (continuous /system_stats up for 30s)
[  80s]   app: /system_stats up; awaiting 30s of stability
[ 110s]   app: backend stable for 30s; proceeding
[ 110s]   capturing canvas load...
[ 119s]   post: waiting for Cloud upsell
[ 119s]   post: clicked Cloud upsell via [button:has-text("Continue Locally"):visible]
[ 121s]   post: waiting for Close Templates
[ 130s]   post: Close Templates not found, skipping
[ 130s]   post: pressed Escape (Close Templates fallback)
[ 132s]   post: waiting for Extensions
[ 133s]   post: clicked Extensions via [button[aria-label="Extensions"]:visible]
[ 135s]   ext: node meta = display='SAM3' publisher='pznodes' version='0.1.15'
[ 138s]   ext: searching "SAM3"
[ 141s]   ext: clicking SAM3 by pznodes tile
[ 145s]   ext: scrolling to + opening version selector
[ 148s]   ext: selected 0.1.15
[ 149s]   ext: clicking right-panel Install
[ 151s]   ext: clicked Install (last of 8 visible)
[ 159s]   ext: waiting for "Apply Changes" toast
[ 191s]   ext: clicked Apply Changes
[ 196s]   app: Apply Changes already triggered in-app restart, skipping pkill
[ 201s]   app: relaunching with CDP
[ 201s]   app: waiting for CDP
[ 201s]   app: CDP up after 1s
[ 201s]   app: reconnecting Playwright
[ 201s]   app: attached to http://127.0.0.1:8000/
[ 215s]   app: server ready after 7s
[ 215s]   app: waiting for main canvas (window.app.graph)
[ 215s]   app: canvas ready after 1s (http://127.0.0.1:8000/)
[ 220s]   app: forcing renderer reload to refresh node-pack manifest
[ 223s]   app: canvas re-ready after reload in 2s
[ 226s]   ext: closing Nodes Manager dialog
[ 226s]   ext: dismissing What's New popup
[ 227s]   ext: closed What's New popup
[ 229s]   ext: dismissing Node Pack Issues modal (if present)
[ 229s]   ext: Node Pack Issues modal not present
[ 229s]   ext: opening Templates sidebar
[ 230s]   ext: clicked Templates
[ 234s]   ext: locating "comfyui-sam3" section in Templates panel
[ 236s]   ext: clicked comfyui-sam3 section
[ 239s]   ext: fetching comfy-test.toml from https://raw.githubusercontent.com/PozzettiAndrea/ComfyUI-SAM3/main/comfy-test.toml
[ 239s]   ext: cpu spec = exclude ['video_point_prompt']
[ 239s]   ext: picking first matching comfyui-sam3 template
[ 239s]   ext: 5 visible cards
[ 239s]   ext: skipping video_point_prompt (not in CPU list)
[ 241s]   ext: clicked template scene_seg_interactive
[ 247s]   ext: installing WS execution listener
[ 247s]   ext: clicking Run
[ 247s]   ext: clicked Run
[ 247s]   ext: waiting for execution_success / execution_error
[ 375s]   ext: WS events=225 elapsed=127s
[ 375s]     ws: {'type': 'progress', 'ts': 1778381456665}
[ 375s]     ws: {'type': 'progress_state', 'ts': 1778381456732}
[ 375s]     ws: {'type': 'progress_state', 'ts': 1778381456735}
[ 375s]     ws: {'type': 'executing', 'ts': 1778381456735}
[ 375s]     ws: {'type': 'progress_state', 'ts': 1778381540768}
[ 375s]     ws: {'type': 'progress', 'ts': 1778381540935}
[ 375s]     ws: {'type': 'executed', 'ts': 1778381549217}
[ 375s]     ws: {'type': 'progress_state', 'ts': 1778381549625}
[ 375s]     ws: {'type': 'progress_state', 'ts': 1778381549632}
[ 375s]     ws: {'type': 'executing', 'ts': 1778381549632}
[ 375s]     ws: {'type': 'executed', 'ts': 1778381551333}
[ 375s]     ws: {'type': 'progress_state', 'ts': 1778381551352}
[ 375s]     ws: {'type': 'execution_success', 'ts': 1778381551361}
[ 375s]     ws: {'type': 'status', 'ts': 1778381551385}
[ 375s]     ws: {'type': 'executing', 'ts': 1778381551392}
[ 375s]   ext: execution_success after 127s
[ 380s]   ext: fetching comfy-test.toml from https://raw.githubusercontent.com/PozzettiAndrea/ComfyUI-SAM3/main/comfy-test.toml
[ 380s]   ext: cpu spec = exclude ['video_point_prompt']
[ 380s]   loop: workflows/ from $COMFY_TEST_WORKFLOWS -> ['image_seg_point', 'image_seg_text', 'scene_seg', 'scene_seg_interactive', 'video_point_prompt']
[ 380s]   loop: spec=exclude items=['video_point_prompt'] -> 4 workflow(s) ['image_seg_point', 'image_seg_text', 'scene_seg', 'scene_seg_interactive']
[ 380s]   loop: matching=4 first_ran='scene_seg_interactive' remaining=3 -> ['image_seg_point', 'image_seg_text', 'scene_seg']
[ 380s]   loop: full restart for workflow 2/4 (image_seg_point)
[ 380s]   loop: closing current browser
[ 380s]   loop: killing ComfyUI process
[ 386s]   loop: launching ComfyUI with --remote-debugging-port=0
[ 386s]   loop: waiting for DevToolsActivePort at /Users/runner/Library/Application Support/ComfyUI/DevToolsActivePort
[ 388s]   loop: DevToolsActivePort -> 49925 after 3s
[ 388s]   loop: reconnecting Playwright on port 49925
[ 389s]   loop: attached to file:///Users/runner/.comfy-test-cache/desktop/ComfyUI.app/Contents/Resources/desktop-ui/index.html#/server-start
[ 404s]   loop: server ready after 13s
[ 406s]   loop: canvas ready after 2s
[ 406s]   loop: forcing renderer reload
[ 409s]   loop: canvas ready after 2s
[ 412s]   ext: closing Nodes Manager dialog
[ 412s]   ext: dismissing What's New popup
[ 412s]   ext: What's New popup not present
[ 412s]   ext: dismissing Node Pack Issues modal (if present)
[ 412s]   ext: Node Pack Issues modal not present
[ 412s]   ext: opening Templates sidebar
[ 413s]   ext: clicked Templates
[ 417s]   ext: locating "comfyui-sam3" section in Templates panel
[ 419s]   ext: clicked comfyui-sam3 section
[ 421s]   ext: clicking template image_seg_point
[ 424s]   ext: clicked template image_seg_point
[ 429s]   ext: installing WS execution listener
[ 429s]   ext: clicking Run
[ 430s]   ext: clicked Run
[ 430s]   ext: waiting for execution_success / execution_error
[ 499s]   ext: WS events=28 elapsed=69s
[ 499s]     ws: {'type': 'progress_state', 'ts': 1778381615806}
[ 499s]     ws: {'type': 'progress_state', 'ts': 1778381615808}
[ 499s]     ws: {'type': 'executing', 'ts': 1778381615840}
[ 499s]     ws: {'type': 'progress_state', 'ts': 1778381677656}
[ 499s]     ws: {'type': 'progress_state', 'ts': 1778381677733}
[ 499s]     ws: {'type': 'executing', 'ts': 1778381677734}
[ 499s]     ws: {'type': 'executed', 'ts': 1778381677820}
[ 499s]     ws: {'type': 'progress_state', 'ts': 1778381677846}
[ 499s]     ws: {'type': 'progress_state', 'ts': 1778381677850}
[ 499s]     ws: {'type': 'executing', 'ts': 1778381677850}
[ 499s]     ws: {'type': 'executed', 'ts': 1778381677871}
[ 499s]     ws: {'type': 'progress_state', 'ts': 1778381677873}
[ 499s]     ws: {'type': 'execution_success', 'ts': 1778381677878}
[ 499s]     ws: {'type': 'status', 'ts': 1778381677924}
[ 499s]     ws: {'type': 'executing', 'ts': 1778381677924}
[ 499s]   ext: execution_success after 69s
[ 504s]   loop: full restart for workflow 3/4 (image_seg_text)
[ 504s]   loop: closing current browser
[ 505s]   loop: killing ComfyUI process
[ 510s]   loop: launching ComfyUI with --remote-debugging-port=0
[ 510s]   loop: waiting for DevToolsActivePort at /Users/runner/Library/Application Support/ComfyUI/DevToolsActivePort
[ 513s]   loop: DevToolsActivePort -> 50126 after 3s
[ 513s]   loop: reconnecting Playwright on port 50126
[ 513s]   loop: attached to file:///Users/runner/.comfy-test-cache/desktop/ComfyUI.app/Contents/Resources/desktop-ui/index.html#/server-start
[ 523s]   loop: server ready after 9s
[ 526s]   loop: canvas ready after 3s
[ 526s]   loop: forcing renderer reload
[ 529s]   loop: canvas ready after 2s
[ 532s]   ext: closing Nodes Manager dialog
[ 532s]   ext: dismissing What's New popup
[ 532s]   ext: What's New popup not present
[ 532s]   ext: dismissing Node Pack Issues modal (if present)
[ 532s]   ext: Node Pack Issues modal not present
[ 532s]   ext: opening Templates sidebar
[ 533s]   ext: clicked Templates
[ 537s]   ext: locating "comfyui-sam3" section in Templates panel
[ 539s]   ext: clicked comfyui-sam3 section
[ 541s]   ext: clicking template image_seg_text
[ 543s]   ext: clicked template image_seg_text
[ 548s]   ext: installing WS execution listener
[ 548s]   ext: clicking Run
[ 549s]   ext: clicked Run
[ 549s]   ext: waiting for execution_success / execution_error
[ 601s]   ext: WS events=13 elapsed=51s
[ 601s]     ws: {'type': 'status', 'ts': 1778381727907}
[ 601s]     ws: {'type': 'status', 'ts': 1778381727908}
[ 601s]     ws: {'type': 'execution_start', 'ts': 1778381727915}
[ 601s]     ws: {'type': 'execution_cached', 'ts': 1778381727960}
[ 601s]     ws: {'type': 'progress_state', 'ts': 1778381727965}
[ 601s]     ws: {'type': 'executing', 'ts': 1778381727966}
[ 601s]     ws: {'type': 'progress_state', 'ts': 1778381728019}
[ 601s]     ws: {'type': 'progress_state', 'ts': 1778381728031}
[ 601s]     ws: {'type': 'executing', 'ts': 1778381728032}
[ 601s]     ws: {'type': 'progress_state', 'ts': 1778381732535}
[ 601s]     ws: {'type': 'progress_state', 'ts': 1778381732537}
[ 601s]     ws: {'type': 'executing', 'ts': 1778381732539}
[ 601s]     ws: {'type': 'execution_error', 'ts': 1778381778713}
[ 601s]   ext: execution_error data:
[ 601s] {
  "prompt_id": "aaab7850-a9df-4559-8a0a-bf2cb25d3809",
  "node_id": "15",
  "node_type": "SAM3Grounding",
  "executed": [
    "12",
    "1"
  ],
  "exception_message": "[srcBuf length] > 0 INTERNAL ASSERT FAILED at \"/Users/runner/work/pytorch/pytorch/pytorch/aten/src/ATen/native/mps/OperationUtils.mm\":554, please report a bug to PyTorch. Placeholder tensor is empty!\n\nWorker traceback:\nTraceback (most recent call last):\n  File \"/var/folders/tb/y368xp_x10s3ty1b_mtl5mxr0000gn/T/comfyui_pvenv_c7iakmi5/persistent_worker.py\", line 1762, in main\n    result = method(**inputs)\n             ^^^^^^^^^^^^^^^^\n  File \"/Users/runner/.comfy-test-cache/desktop/ComfyUI.app/Contents/Resources/ComfyUI/comfy_api/latest/_io.py\", line 1826, in EXECUTE_NORMALIZED\n    to_return = cls.execute(*args, **kwargs)\n                ^^^^^^^^^^^^^^^^^^^^^^^^^^^^\n  File \"/Users/runner/Documents/ComfyUI/custom_nodes/comfyui-sam3/nodes/segmentation.py\", line 111, in execute\n    result = cls._segment_grounding(\n             ^^^^^^^^^^^^^^^^^^^^^^^\n  File \"/Users/runner/Documents/ComfyUI/custom_nodes/comfyui-sam3/nodes/segmentation.py\", line 138, in _segment_grounding\n    state = processor.set_text_prompt(text_prompt.strip(), state)\n            ^^^^^^^^^^^^^^^^^^^^^^^^^^^^^^^^^^^^^^^^^^^^^^^^^^^^^\n  File \"/Users/runner/Documents/ComfyUI/.ce/.pixi/envs/sam3-nodes/lib/python3.12/site-packages/torch/utils/_contextlib.py\", line 124, in decorate_context\n    return func(*args, **kwargs)\n           ^^^^^^^^^^^^^^^^^^^^^\n  File \"/Users/runner/Documents/ComfyUI/custom_nodes/comfyui-sam3/nodes/sam3/utils.py\", line 1393, in set_text_prompt\n    return self._forward_grounding(state)\n           ^^^^^^^^^^^^^^^^^^^^^^^^^^^^^^\n  File \"/Users/runner/Documents/ComfyUI/.ce/.pixi/envs/sam3-nodes/lib/python3.12/site-packages/torch/utils/_contextlib.py\", line 124, in decorate_context\n    return func(*args, **kwargs)\n           ^^^^^^^^^^^^^^^^^^^^^\n  File \"/Users/runner/Documents/ComfyUI/custom_nodes/comfyui-sam3/nodes/sam3/utils.py\", line 1477, in _forward_grounding\n    outputs = self.model.forward_grounding(\n              ^^^^^^^^^^^^^^^^^^^^^^^^^^^^^\n  File \"/Users/runner/Documents/ComfyUI/custom_nodes/comfyui-sam3/nodes/sam3/model.py\", line 3810, in forward_grounding\n    prompt, prompt_mask, backbone_out = self._encode_prompt(\n                                        ^^^^^^^^^^^^^^^^^^^^\n  File \"/Users/runner/Documents/ComfyUI/custom_nodes/comfyui-sam3/nodes/sam3/model.py\", line 3552, in _encode_prompt\n    geo_feats, geo_masks = self.geometry_encoder(\n                           ^^^^^^^^^^^^^^^^^^^^^^\n  File \"/Users/runner/Documents/ComfyUI/.ce/.pixi/envs/sam3-nodes/lib/python3.12/site-packages/torch/nn/modules/module.py\", line 1776, in _wrapped_call_impl\n    return self._call_impl(*args, **kwargs)\n           ^^^^^^^^^^^^^^^^^^^^^^^^^^^^^^^^\n  File \"/Users/runner/Documents/ComfyUI/.ce/.pixi/envs/sam3-nodes/lib/python3.12/site-packages/torch/nn/modules/module.py\", line 1787, in _call_impl\n    return forward_call(*args, **kwargs)\n           ^^^^^^^^^^^^^^^^^^^^^^^^^^^^^\n  File \"/Users/runner/Documents/ComfyUI/custom_nodes/comfyui-sam3/nodes/sam3/model.py\", line 2483, in forward\n    final_embeds, final_mask = self._encode_points(\n                               ^^^^^^^^^^^^^^^^^^^^\n  File \"/Users/runner/Documents/ComfyUI/custom_nodes/comfyui-sam3/nodes/sam3/model.py\", line 2344, in _encode_points\n    sampled = torch.nn.functional.grid_sample(img_feats, grid, align_corners=False)\n              ^^^^^^^^^^^^^^^^^^^^^^^^^^^^^^^^^^^^^^^^^^^^^^^^^^^^^^^^^^^^^^^^^^^^^\n  File \"/Users/runner/Documents/ComfyUI/.ce/.pixi/envs/sam3-nodes/lib/python3.12/site-packages/torch/nn/functional.py\", line 5230, in grid_sample\n    return torch.grid_sampler(input, grid, mode_enum, padding_mode_enum, align_corners)\n           ^^^^^^^^^^^^^^^^^^^^^^^^^^^^^^^^^^^^^^^^^^^^^^^^^^^^^^^^^^^^^^^^^^^^^^^^^^^^\nRuntimeError: [srcBuf length] > 0 INTERNAL ASSERT FAILED at \"/Users/runner/work/pytorch/pytorch/pytorch/aten/src/ATen/native/mps/OperationUtils.mm\":554, please report a bug to PyTorch. Placeholder tensor is empty!\n\n",
  "exception_type": "comfy_env.isolation.workers.base.WorkerError",
  "traceback": [
    "  File \"/Users/runner/.comfy-test-cache/desktop/ComfyUI.app/Contents/Resources/ComfyUI/execution.py\", line 534, in execute\n    output_data, output_ui, has_subgraph, has_pending_tasks = await get_output_data(prompt_id, unique_id, obj, input_data_all, execution_block_cb=execution_block_cb, pre_execute_cb=pre_execute_cb, v3_data=v3_data)\n                                                              ^^^^^^^^^^^^^^^^^^^^^^^^^^^^^^^^^^^^^^^^^^^^^^^^^^^^^^^^^^^^^^^^^^^^^^^^^^^^^^^^^^^^^^^^^^^^^^^^^^^^^^^^^^^^^^^^^^^^^^^^^^^^^^^^^^^^^^^^^^^^^^^^^^^^^^^\n",
    "  File \"/Users/runner/.comfy-test-cache/desktop/ComfyUI.app/Contents/Resources/ComfyUI/execution.py\", line 334, in get_output_data\n    return_values = await _async_map_node_over_list(prompt_id, unique_id, obj, input_data_all, obj.FUNCTION, allow_interrupt=True, execution_block_cb=execution_block_cb, pre_execute_cb=pre_execute_cb, v3_data=v3_data)\n                    ^^^^^^^^^^^^^^^^^^^^^^^^^^^^^^^^^^^^^^^^^^^^^^^^^^^^^^^^^^^^^^^^^^^^^^^^^^^^^^^^^^^^^^^^^^^^^^^^^^^^^^^^^^^^^^^^^^^^^^^^^^^^^^^^^^^^^^^^^^^^^^^^^^^^^^^^^^^^^^^^^^^^^^^^^^^^^^^^^^^^^^^^^^^^^^^^^^^^^\n",
    "  File \"/Users/runner/.comfy-test-cache/desktop/ComfyUI.app/Contents/Resources/ComfyUI/execution.py\", line 308, in _async_map_node_over_list\n    await process_inputs(input_dict, i)\n",
    "  File \"/Users/runner/.comfy-test-cache/desktop/ComfyUI.app/Contents/Resources/ComfyUI/execution.py\", line 296, in process_inputs\n    result = f(**inputs)\n             ^^^^^^^^^^^\n",
    "  File \"/Users/runner/Documents/ComfyUI/.venv/lib/python3.12/site-packages/comfy_env/isolation/metadata.py\", line 536, in proxy\n    result = worker.call_method(\n             ^^^^^^^^^^^^^^^^^^^\n",
    "  File \"/Users/runner/Documents/ComfyUI/.venv/lib/python3.12/site-packages/comfy_env/isolation/workers/subprocess.py\", line 674, in call_method\n    raise WorkerError(\n"
  ],
  "current_inputs": {
    "confidence_threshold": [
      0.2
    ],
    "text_prompt": [
      "child"
    ],
    "max_detections": [
      -1
    ],
    "sam3_model_config": [
      "{'checkpoint_path': '/Users/runner/Documents/ComfyUI/models/sam3/sam3.safetensors', 'bpe_path': '/Users/runner/Documents/ComfyUI/custom_nodes/comfyui-sam3/nodes/sam3/bpe_simple_vocab_16e6.txt.gz', 'precision': 'auto', 'dtype': 'bf16', 'compile': False}"
    ],
    "image": [
      "tensor([[[[0.2902, 0.4667, 0.5961],\n          [0.2902, 0.4667, 0.5961],\n          [0.2902, 0.4667, 0.5961],\n          ...,\n          [0.3216, 0.5804, 0.7176],\n          [0.3333, 0.6000, 0.7451],\n          [0.3529, 0.6196, 0.7647]],\n\n         [[0.2902, 0.4667, 0.5961],\n          [0.2902, 0.4667, 0.5961],\n          [0.2902, 0.4667, 0.5961],\n          ...,\n          [0.3373, 0.5686, 0.6941],\n          [0.3412, 0.5725, 0.7059],\n          [0.3490, 0.5843, 0.7176]],\n\n         [[0.2902, 0.4667, 0.5961],\n          [0.2902, 0.4667, 0.5961],\n          [0.2902, 0.4667, 0.5961],\n          ...,\n          [0.3686, 0.5412, 0.6471],\n          [0.3647, 0.5373, 0.6431],\n          [0.3686, 0.5412, 0.6471]],\n\n         ...,\n\n         [[0.4941, 0.4824, 0.4157],\n          [0.4941, 0.4824, 0.4157],\n          [0.4980, 0.4863, 0.4196],\n          ...,\n          [0.5647, 0.5569, 0.5059],\n          [0.5647, 0.5569, 0.5059],\n          [0.5647, 0.5569, 0.5059]],\n\n         [[0.5098, 0.4980, 0.4314],\n          [0.5098, 0.4980, 0.4314],\n          [0.5137, 0.5020, 0.4353],\n          ...,\n          [0.5647, 0.5569, 0.5059],\n          [0.5647, 0.5569, 0.5059],\n          [0.5647, 0.5569, 0.5059]],\n\n         [[0.5176, 0.5059, 0.4392],\n          [0.5216, 0.5098, 0.4431],\n          [0.5255, 0.5137, 0.4471],\n          ...,\n          [0.5647, 0.5569, 0.5059],\n          [0.5647, 0.5569, 0.5059],\n          [0.5647, 0.5569, 0.5059]]]])"
    ]
  },
  "current_outputs": [
    "4",
    "12",
    "1",
    "15",
    "3"
  ],
  "timestamp": 1778381778625
}
[ 606s]   loop: full restart for workflow 4/4 (scene_seg)
[ 606s]   loop: closing current browser
[ 606s]   loop: killing ComfyUI process
[ 611s]   loop: launching ComfyUI with --remote-debugging-port=0
[ 611s]   loop: waiting for DevToolsActivePort at /Users/runner/Library/Application Support/ComfyUI/DevToolsActivePort
[ 612s]   loop: DevToolsActivePort -> 50295 after 2s
[ 612s]   loop: reconnecting Playwright on port 50295
[ 613s]   loop: attached to file:///Users/runner/.comfy-test-cache/desktop/ComfyUI.app/Contents/Resources/desktop-ui/index.html#/desktop-start
[ 626s]   loop: server ready after 11s
[ 626s]   loop: canvas ready after 1s
[ 626s]   loop: forcing renderer reload
[ 628s]   loop: canvas ready after 2s
[ 631s]   ext: closing Nodes Manager dialog
[ 631s]   ext: dismissing What's New popup
[ 631s]   ext: What's New popup not present
[ 631s]   ext: dismissing Node Pack Issues modal (if present)
[ 631s]   ext: Node Pack Issues modal not present
[ 631s]   ext: opening Templates sidebar
[ 632s]   ext: clicked Templates
[ 636s]   ext: locating "comfyui-sam3" section in Templates panel
[ 638s]   ext: clicked comfyui-sam3 section
[ 640s]   ext: clicking template scene_seg
[ 643s]   ext: clicked template scene_seg
[ 648s]   ext: installing WS execution listener
[ 648s]   ext: clicking Run
[ 649s]   ext: clicked Run
[ 649s]   ext: waiting for execution_success / execution_error
[ 748s]   ext: WS events=53 elapsed=99s
[ 748s]     ws: {'type': 'progress_state', 'ts': 1778381922640}
[ 748s]     ws: {'type': 'progress_state', 'ts': 1778381922646}
[ 748s]     ws: {'type': 'executing', 'ts': 1778381922646}
[ 748s]     ws: {'type': 'progress_state', 'ts': 1778381925614}
[ 748s]     ws: {'type': 'progress_state', 'ts': 1778381925620}
[ 748s]     ws: {'type': 'executing', 'ts': 1778381925636}
[ 748s]     ws: {'type': 'progress_state', 'ts': 1778381926138}
[ 748s]     ws: {'type': 'progress_state', 'ts': 1778381926154}
[ 748s]     ws: {'type': 'executing', 'ts': 1778381926155}
[ 748s]     ws: {'type': 'progress_state', 'ts': 1778381926756}
[ 748s]     ws: {'type': 'progress_state', 'ts': 1778381926760}
[ 748s]     ws: {'type': 'executing', 'ts': 1778381926761}
[ 748s]     ws: {'type': 'executed', 'ts': 1778381926986}
[ 748s]     ws: {'type': 'progress_state', 'ts': 1778381926989}
[ 748s]     ws: {'type': 'execution_success', 'ts': 1778381927008}
[ 748s]   ext: execution_success after 99s
[ 754s] Captured 818 frames
[ 754s] Wrote /Users/runner/work/comfy-gpu-ci/comfy-gpu-ci/comfy-test-logs/SAM3-0245/dev/macos-desktop/results.json (4 workflow(s))
ffmpeg version 7.1 Copyright (c) 2000-2024 the FFmpeg developers
  built with Apple clang version 13.1.6 (clang-1316.0.21.2.5)
  configuration: --prefix=/Volumes/tempdisk/sw --extra-cflags=-fno-stack-check --arch=arm64 --cc=/usr/bin/clang --enable-gpl --enable-libvmaf --enable-libopenjpeg --enable-libopus --enable-libmp3lame --enable-libx264 --enable-libx265 --enable-libvpx --enable-libwebp --enable-libass --enable-libfreetype --enable-fontconfig --enable-libtheora --enable-libvorbis --enable-libsnappy --enable-libaom --enable-libvidstab --enable-libzimg --enable-libsvtav1 --enable-libharfbuzz --enable-libkvazaar --pkg-config-flags=--static --enable-ffplay --enable-postproc --enable-neon --enable-runtime-cpudetect --disable-indev=qtkit --disable-indev=x11grab_xcb
  libavutil      59. 39.100 / 59. 39.100
  libavcodec     61. 19.100 / 61. 19.100
  libavformat    61.  7.100 / 61.  7.100
  libavdevice    61.  3.100 / 61.  3.100
  libavfilter    10.  4.100 / 10.  4.100
  libswscale      8.  3.100 /  8.  3.100
  libswresample   5.  3.100 /  5.  3.100
  libpostproc    58.  3.100 / 58.  3.100
Input #0, image2, from '/Users/runner/work/comfy-gpu-ci/comfy-gpu-ci/comfy-test-logs/SAM3-0245/dev/macos-desktop/debug/electron_inspect/frames/frame_%06d.png':
  Duration: 00:02:43.60, start: 0.000000, bitrate: N/A
  Stream #0:0: Video: png, rgb24(pc, gbr/bt709/iec61966-2-1), 1024x656, 5 fps, 5 tbr, 5 tbn
Stream mapping:
  Stream #0:0 -> #0:0 (png (native) -> h264 (libx264))
Press [q] to stop, [?] for help
[libx264 @ 0x15a607df0] using cpu capabilities: ARMv8 NEON
[libx264 @ 0x15a607df0] profile High, level 3.1, 4:2:0, 8-bit
[libx264 @ 0x15a607df0] 264 - core 164 r3190 7ed753b - H.264/MPEG-4 AVC codec - Copyleft 2003-2024 - http://www.videolan.org/x264.html - options: cabac=1 ref=3 deblock=1:0:0 analyse=0x3:0x113 me=hex subme=7 psy=1 psy_rd=1.00:0.00 mixed_ref=1 me_range=16 chroma_me=1 trellis=1 8x8dct=1 cqm=0 deadzone=21,11 fast_pskip=1 chroma_qp_offset=-2 threads=4 lookahead_threads=1 sliced_threads=0 nr=0 decimate=1 interlaced=0 bluray_compat=0 constrained_intra=0 bframes=3 b_pyramid=2 b_adapt=1 b_bias=0 direct=1 weightb=1 open_gop=0 weightp=2 keyint=250 keyint_min=5 scenecut=40 intra_refresh=0 rc_lookahead=40 rc=crf mbtree=1 crf=23.0 qcomp=0.60 qpmin=0 qpmax=69 qpstep=4 ip_ratio=1.40 aq=1:1.00
Output #0, mp4, to '/Users/runner/work/comfy-gpu-ci/comfy-gpu-ci/comfy-test-logs/SAM3-0245/dev/macos-desktop/debug/electron_inspect/driver.mp4':
  Metadata:
    encoder         : Lavf61.7.100
  Stream #0:0: Video: h264 (avc1 / 0x31637661), yuv420p(tv, unknown/bt709/iec61966-2-1, progressive), 1024x656, q=2-31, 5 fps, 10240 tbn
      Metadata:
        encoder         : Lavc61.19.100 libx264
      Side data:
        cpb: bitrate max/min/avg: 0/0/0 buffer size: 0 vbv_delay: N/A
frame=   43 fps=0.0 q=23.0 size=       0KiB time=00:00:08.20 bitrate=   0.0kbits/s speed=14.8x    
frame=  146 fps=136 q=23.0 size=     512KiB time=00:00:28.80 bitrate= 145.6kbits/s speed=26.7x    
frame=  287 fps=166 q=23.0 size=     768KiB time=00:00:57.00 bitrate= 110.4kbits/s speed=  33x    
[vf#0:0 @ 0x60000078d040] Reconfiguring filter graph because video parameters changed to rgb24(pc, gbr), 1024x653
frame=  413 fps=175 q=23.0 size=     768KiB time=00:01:22.20 bitrate=  76.5kbits/s speed=34.8x    
frame=  526 fps=176 q=23.0 size=    1536KiB time=00:01:44.80 bitrate= 120.1kbits/s speed=  35x    
frame=  621 fps=175 q=23.0 size=    1792KiB time=00:02:03.80 bitrate= 118.6kbits/s speed=34.8x    
frame=  706 fps=174 q=23.0 size=    2048KiB time=00:02:20.80 bitrate= 119.2kbits/s speed=34.7x    
frame=  809 fps=176 q=23.0 size=    2304KiB time=00:02:41.40 bitrate= 116.9kbits/s speed=35.2x    
[out#0/mp4 @ 0x60000038c300] video:2550KiB audio:0KiB subtitle:0KiB other streams:0KiB global headers:0KiB muxing overhead: 0.404494%
frame=  818 fps=178 q=-1.0 Lsize=    2560KiB time=00:02:43.20 bitrate= 128.5kbits/s speed=35.4x    
[libx264 @ 0x15a607df0] frame I:21    Avg QP: 8.33  size: 42239
[libx264 @ 0x15a607df0] frame P:236   Avg QP:16.08  size:  4614
[libx264 @ 0x15a607df0] frame B:561   Avg QP:22.74  size:  1131
[libx264 @ 0x15a607df0] consecutive B-frames:  5.9%  6.6%  4.4% 83.1%
[libx264 @ 0x15a607df0] mb I  I16..4: 54.3% 18.0% 27.7%
[libx264 @ 0x15a607df0] mb P  I16..4:  2.3%  3.5%  2.8%  P16..4:  2.3%  0.9%  0.6%  0.0%  0.0%    skip:87.6%
[libx264 @ 0x15a607df0] mb B  I16..4:  0.2%  0.4%  0.3%  B16..8:  3.0%  0.7%  0.3%  direct: 0.3%  skip:94.8%  L0:49.9% L1:44.5% BI: 5.7%
[libx264 @ 0x15a607df0] 8x8 transform intra:31.3% inter:50.2%
[libx264 @ 0x15a607df0] coded y,uvDC,uvAC intra: 36.1% 20.1% 16.4% inter: 1.3% 0.9% 0.2%
[libx264 @ 0x15a607df0] i16 v,h,dc,p: 67% 29%  2%  2%
[libx264 @ 0x15a607df0] i8 v,h,dc,ddl,ddr,vr,hd,vl,hu: 33% 19% 33%  2%  2%  2%  3%  2%  4%
[libx264 @ 0x15a607df0] i4 v,h,dc,ddl,ddr,vr,hd,vl,hu: 32% 30% 18%  2%  4%  3%  4%  3%  4%
[libx264 @ 0x15a607df0] i8c dc,h,v,p: 78% 12%  7%  3%
[libx264 @ 0x15a607df0] Weighted P-Frames: Y:1.7% UV:1.7%
[libx264 @ 0x15a607df0] ref P L0: 55.3%  3.0% 21.8% 19.8%  0.0%
[libx264 @ 0x15a607df0] ref B L0: 73.1% 22.7%  4.2%
[libx264 @ 0x15a607df0] ref B L1: 95.0%  5.0%
[libx264 @ 0x15a607df0] kb/s:127.64
[ 759s] Wrote /Users/runner/work/comfy-gpu-ci/comfy-gpu-ci/comfy-test-logs/SAM3-0245/dev/macos-desktop/debug/electron_inspect/driver.mp4
ffmpeg version 7.1 Copyright (c) 2000-2024 the FFmpeg developers
  built with Apple clang version 13.1.6 (clang-1316.0.21.2.5)
  configuration: --prefix=/Volumes/tempdisk/sw --extra-cflags=-fno-stack-check --arch=arm64 --cc=/usr/bin/clang --enable-gpl --enable-libvmaf --enable-libopenjpeg --enable-libopus --enable-libmp3lame --enable-libx264 --enable-libx265 --enable-libvpx --enable-libwebp --enable-libass --enable-libfreetype --enable-fontconfig --enable-libtheora --enable-libvorbis --enable-libsnappy --enable-libaom --enable-libvidstab --enable-libzimg --enable-libsvtav1 --enable-libharfbuzz --enable-libkvazaar --pkg-config-flags=--static --enable-ffplay --enable-postproc --enable-neon --enable-runtime-cpudetect --disable-indev=qtkit --disable-indev=x11grab_xcb
  libavutil      59. 39.100 / 59. 39.100
  libavcodec     61. 19.100 / 61. 19.100
  libavformat    61.  7.100 / 61.  7.100
  libavdevice    61.  3.100 / 61.  3.100
  libavfilter    10.  4.100 / 10.  4.100
  libswscale      8.  3.100 /  8.  3.100
  libswresample   5.  3.100 /  5.  3.100
  libpostproc    58.  3.100 / 58.  3.100
Input #0, image2, from '/Users/runner/work/comfy-gpu-ci/comfy-gpu-ci/comfy-test-logs/SAM3-0245/dev/macos-desktop/debug/electron_inspect/frames/frame_%06d.png':
  Duration: 00:01:41.40, start: 0.000000, bitrate: N/A
  Stream #0:0: Video: png, rgb24(pc, gbr/bt709/iec61966-2-1), 1024x656, 5 fps, 5 tbr, 5 tbn
Stream mapping:
  Stream #0:0 -> #0:0 (png (native) -> h264 (libx264))
Press [q] to stop, [?] for help
[libx264 @ 0x157e06990] using cpu capabilities: ARMv8 NEON
[libx264 @ 0x157e06990] profile High, level 3.1, 4:2:0, 8-bit
[libx264 @ 0x157e06990] 264 - core 164 r3190 7ed753b - H.264/MPEG-4 AVC codec - Copyleft 2003-2024 - http://www.videolan.org/x264.html - options: cabac=1 ref=3 deblock=1:0:0 analyse=0x3:0x113 me=hex subme=7 psy=1 psy_rd=1.00:0.00 mixed_ref=1 me_range=16 chroma_me=1 trellis=1 8x8dct=1 cqm=0 deadzone=21,11 fast_pskip=1 chroma_qp_offset=-2 threads=4 lookahead_threads=1 sliced_threads=0 nr=0 decimate=1 interlaced=0 bluray_compat=0 constrained_intra=0 bframes=3 b_pyramid=2 b_adapt=1 b_bias=0 direct=1 weightb=1 open_gop=0 weightp=2 keyint=250 keyint_min=5 scenecut=40 intra_refresh=0 rc_lookahead=40 rc=crf mbtree=1 crf=23.0 qcomp=0.60 qpmin=0 qpmax=69 qpstep=4 ip_ratio=1.40 aq=1:1.00
Output #0, mp4, to '/Users/runner/work/comfy-gpu-ci/comfy-gpu-ci/comfy-test-logs/SAM3-0245/dev/macos-desktop/videos/scene_seg_interactive/driver.mp4':
  Metadata:
    encoder         : Lavf61.7.100
  Stream #0:0: Video: h264 (avc1 / 0x31637661), yuv420p(tv, unknown/bt709/iec61966-2-1, progressive), 1024x656, q=2-31, 5 fps, 10240 tbn
      Metadata:
        encoder         : Lavc61.19.100 libx264
      Side data:
        cpb: bitrate max/min/avg: 0/0/0 buffer size: 0 vbv_delay: N/A
frame=   70 fps=0.0 q=23.0 size=       0KiB time=00:00:13.60 bitrate=   0.0kbits/s speed=21.4x    
[out#0/mp4 @ 0x600001ad4300] video:104KiB audio:0KiB subtitle:0KiB other streams:0KiB global headers:0KiB muxing overhead: 2.283349%
frame=  131 fps=0.0 q=-1.0 Lsize=     106KiB time=00:00:25.80 bitrate=  33.8kbits/s speed=31.3x    
[libx264 @ 0x157e06990] frame I:1     Avg QP:10.38  size: 54575
[libx264 @ 0x157e06990] frame P:33    Avg QP:13.94  size:  1192
[libx264 @ 0x157e06990] frame B:97    Avg QP:23.96  size:   123
[libx264 @ 0x157e06990] consecutive B-frames:  0.8%  1.5%  0.0% 97.7%
[libx264 @ 0x157e06990] mb I  I16..4: 43.4% 23.9% 32.7%
[libx264 @ 0x157e06990] mb P  I16..4:  0.5%  0.1%  0.4%  P16..4:  1.6%  0.3%  0.1%  0.0%  0.0%    skip:97.1%
[libx264 @ 0x157e06990] mb B  I16..4:  0.0%  0.0%  0.0%  B16..8:  1.3%  0.1%  0.0%  direct: 0.0%  skip:98.5%  L0:45.3% L1:53.3% BI: 1.4%
[libx264 @ 0x157e06990] 8x8 transform intra:22.6% inter:44.6%
[libx264 @ 0x157e06990] coded y,uvDC,uvAC intra: 43.1% 18.9% 14.8% inter: 0.2% 0.2% 0.0%
[libx264 @ 0x157e06990] i16 v,h,dc,p: 48% 52%  0%  0%
[libx264 @ 0x157e06990] i8 v,h,dc,ddl,ddr,vr,hd,vl,hu: 50% 24% 24%  1%  0%  0%  0%  0%  0%
[libx264 @ 0x157e06990] i4 v,h,dc,ddl,ddr,vr,hd,vl,hu: 38% 33% 12%  3%  3%  2%  3%  2%  3%
[libx264 @ 0x157e06990] i8c dc,h,v,p: 68% 21% 10%  1%
[libx264 @ 0x157e06990] Weighted P-Frames: Y:0.0% UV:0.0%
[libx264 @ 0x157e06990] ref P L0: 78.2%  1.6% 16.3%  3.9%
[libx264 @ 0x157e06990] ref B L0: 71.7% 23.5%  4.8%
[libx264 @ 0x157e06990] ref B L1: 92.6%  7.4%
[libx264 @ 0x157e06990] kb/s:32.33
[ 760s]   videos/scene_seg_interactive/driver.mp4 placed (frames 312..442)
[ 760s]   screenshots/scene_seg_interactive_executed.png placed
ffmpeg version 7.1 Copyright (c) 2000-2024 the FFmpeg developers
  built with Apple clang version 13.1.6 (clang-1316.0.21.2.5)
  configuration: --prefix=/Volumes/tempdisk/sw --extra-cflags=-fno-stack-check --arch=arm64 --cc=/usr/bin/clang --enable-gpl --enable-libvmaf --enable-libopenjpeg --enable-libopus --enable-libmp3lame --enable-libx264 --enable-libx265 --enable-libvpx --enable-libwebp --enable-libass --enable-libfreetype --enable-fontconfig --enable-libtheora --enable-libvorbis --enable-libsnappy --enable-libaom --enable-libvidstab --enable-libzimg --enable-libsvtav1 --enable-libharfbuzz --enable-libkvazaar --pkg-config-flags=--static --enable-ffplay --enable-postproc --enable-neon --enable-runtime-cpudetect --disable-indev=qtkit --disable-indev=x11grab_xcb
  libavutil      59. 39.100 / 59. 39.100
  libavcodec     61. 19.100 / 61. 19.100
  libavformat    61.  7.100 / 61.  7.100
  libavdevice    61.  3.100 / 61.  3.100
  libavfilter    10.  4.100 / 10.  4.100
  libswscale      8.  3.100 /  8.  3.100
  libswresample   5.  3.100 /  5.  3.100
  libpostproc    58.  3.100 / 58.  3.100
Input #0, image2, from '/Users/runner/work/comfy-gpu-ci/comfy-gpu-ci/comfy-test-logs/SAM3-0245/dev/macos-desktop/debug/electron_inspect/frames/frame_%06d.png':
  Duration: 00:01:07.40, start: 0.000000, bitrate: N/A
  Stream #0:0: Video: png, rgb24(pc, gbr/bt709/iec61966-2-1), 1024x653, 5 fps, 5 tbr, 5 tbn
Stream mapping:
  Stream #0:0 -> #0:0 (png (native) -> h264 (libx264))
Press [q] to stop, [?] for help
[libx264 @ 0x11ce07460] using cpu capabilities: ARMv8 NEON
[libx264 @ 0x11ce07460] profile High, level 3.1, 4:2:0, 8-bit
[libx264 @ 0x11ce07460] 264 - core 164 r3190 7ed753b - H.264/MPEG-4 AVC codec - Copyleft 2003-2024 - http://www.videolan.org/x264.html - options: cabac=1 ref=3 deblock=1:0:0 analyse=0x3:0x113 me=hex subme=7 psy=1 psy_rd=1.00:0.00 mixed_ref=1 me_range=16 chroma_me=1 trellis=1 8x8dct=1 cqm=0 deadzone=21,11 fast_pskip=1 chroma_qp_offset=-2 threads=4 lookahead_threads=1 sliced_threads=0 nr=0 decimate=1 interlaced=0 bluray_compat=0 constrained_intra=0 bframes=3 b_pyramid=2 b_adapt=1 b_bias=0 direct=1 weightb=1 open_gop=0 weightp=2 keyint=250 keyint_min=5 scenecut=40 intra_refresh=0 rc_lookahead=40 rc=crf mbtree=1 crf=23.0 qcomp=0.60 qpmin=0 qpmax=69 qpstep=4 ip_ratio=1.40 aq=1:1.00
Output #0, mp4, to '/Users/runner/work/comfy-gpu-ci/comfy-gpu-ci/comfy-test-logs/SAM3-0245/dev/macos-desktop/videos/image_seg_point/driver.mp4':
  Metadata:
    encoder         : Lavf61.7.100
  Stream #0:0: Video: h264 (avc1 / 0x31637661), yuv420p(tv, unknown/bt709/iec61966-2-1, progressive), 1024x654, q=2-31, 5 fps, 10240 tbn
      Metadata:
        encoder         : Lavc61.19.100 libx264
      Side data:
        cpb: bitrate max/min/avg: 0/0/0 buffer size: 0 vbv_delay: N/A
frame=   70 fps=0.0 q=23.0 size=       0KiB time=N/A bitrate=N/A speed=N/A    
[out#0/mp4 @ 0x600000aa8300] video:107KiB audio:0KiB subtitle:0KiB other streams:0KiB global headers:0KiB muxing overhead: 1.884724%
frame=  100 fps=0.0 q=-1.0 Lsize=     109KiB time=00:00:19.60 bitrate=  45.5kbits/s speed=27.9x    
[libx264 @ 0x11ce07460] frame I:2     Avg QP:12.12  size: 34420
[libx264 @ 0x11ce07460] frame P:25    Avg QP:15.74  size:  1365
[libx264 @ 0x11ce07460] frame B:73    Avg QP:23.99  size:    79
[libx264 @ 0x11ce07460] consecutive B-frames:  2.0%  2.0%  0.0% 96.0%
[libx264 @ 0x11ce07460] mb I  I16..4: 48.4% 26.4% 25.2%
[libx264 @ 0x11ce07460] mb P  I16..4:  0.4%  0.3%  0.5%  P16..4:  0.8%  0.1%  0.1%  0.0%  0.0%    skip:97.8%
[libx264 @ 0x11ce07460] mb B  I16..4:  0.1%  0.1%  0.0%  B16..8:  0.9%  0.0%  0.0%  direct: 0.0%  skip:98.9%  L0:62.8% L1:36.9% BI: 0.2%
[libx264 @ 0x11ce07460] 8x8 transform intra:27.5% inter:57.9%
[libx264 @ 0x11ce07460] coded y,uvDC,uvAC intra: 17.9% 18.3% 14.5% inter: 0.1% 0.2% 0.1%
[libx264 @ 0x11ce07460] i16 v,h,dc,p: 56% 39%  0%  4%
[libx264 @ 0x11ce07460] i8 v,h,dc,ddl,ddr,vr,hd,vl,hu: 55% 20% 22%  0%  2%  1%  1%  0%  0%
[libx264 @ 0x11ce07460] i4 v,h,dc,ddl,ddr,vr,hd,vl,hu: 36% 31% 16%  2%  3%  3%  4%  2%  3%
[libx264 @ 0x11ce07460] i8c dc,h,v,p: 72% 17%  7%  4%
[libx264 @ 0x11ce07460] Weighted P-Frames: Y:0.0% UV:0.0%
[libx264 @ 0x11ce07460] ref P L0: 84.1%  2.6% 12.1%  1.2%
[libx264 @ 0x11ce07460] ref B L0: 72.5% 26.3%  1.2%
[libx264 @ 0x11ce07460] ref B L1: 95.3%  4.7%
[libx264 @ 0x11ce07460] kb/s:43.51
[ 761s]   videos/image_seg_point/driver.mp4 placed (frames 482..581)
[ 761s]   screenshots/image_seg_point_executed.png placed
ffmpeg version 7.1 Copyright (c) 2000-2024 the FFmpeg developers
  built with Apple clang version 13.1.6 (clang-1316.0.21.2.5)
  configuration: --prefix=/Volumes/tempdisk/sw --extra-cflags=-fno-stack-check --arch=arm64 --cc=/usr/bin/clang --enable-gpl --enable-libvmaf --enable-libopenjpeg --enable-libopus --enable-libmp3lame --enable-libx264 --enable-libx265 --enable-libvpx --enable-libwebp --enable-libass --enable-libfreetype --enable-fontconfig --enable-libtheora --enable-libvorbis --enable-libsnappy --enable-libaom --enable-libvidstab --enable-libzimg --enable-libsvtav1 --enable-libharfbuzz --enable-libkvazaar --pkg-config-flags=--static --enable-ffplay --enable-postproc --enable-neon --enable-runtime-cpudetect --disable-indev=qtkit --disable-indev=x11grab_xcb
  libavutil      59. 39.100 / 59. 39.100
  libavcodec     61. 19.100 / 61. 19.100
  libavformat    61.  7.100 / 61.  7.100
  libavdevice    61.  3.100 / 61.  3.100
  libavfilter    10.  4.100 / 10.  4.100
  libswscale      8.  3.100 /  8.  3.100
  libswresample   5.  3.100 /  5.  3.100
  libpostproc    58.  3.100 / 58.  3.100
Input #0, image2, from '/Users/runner/work/comfy-gpu-ci/comfy-gpu-ci/comfy-test-logs/SAM3-0245/dev/macos-desktop/debug/electron_inspect/frames/frame_%06d.png':
  Duration: 00:00:40.00, start: 0.000000, bitrate: N/A
  Stream #0:0: Video: png, rgb24(pc, gbr/bt709/iec61966-2-1), 1024x653, 5 fps, 5 tbr, 5 tbn
Stream mapping:
  Stream #0:0 -> #0:0 (png (native) -> h264 (libx264))
Press [q] to stop, [?] for help
[libx264 @ 0x13b608470] using cpu capabilities: ARMv8 NEON
[libx264 @ 0x13b608470] profile High, level 3.1, 4:2:0, 8-bit
[libx264 @ 0x13b608470] 264 - core 164 r3190 7ed753b - H.264/MPEG-4 AVC codec - Copyleft 2003-2024 - http://www.videolan.org/x264.html - options: cabac=1 ref=3 deblock=1:0:0 analyse=0x3:0x113 me=hex subme=7 psy=1 psy_rd=1.00:0.00 mixed_ref=1 me_range=16 chroma_me=1 trellis=1 8x8dct=1 cqm=0 deadzone=21,11 fast_pskip=1 chroma_qp_offset=-2 threads=4 lookahead_threads=1 sliced_threads=0 nr=0 decimate=1 interlaced=0 bluray_compat=0 constrained_intra=0 bframes=3 b_pyramid=2 b_adapt=1 b_bias=0 direct=1 weightb=1 open_gop=0 weightp=2 keyint=250 keyint_min=5 scenecut=40 intra_refresh=0 rc_lookahead=40 rc=crf mbtree=1 crf=23.0 qcomp=0.60 qpmin=0 qpmax=69 qpstep=4 ip_ratio=1.40 aq=1:1.00
Output #0, mp4, to '/Users/runner/work/comfy-gpu-ci/comfy-gpu-ci/comfy-test-logs/SAM3-0245/dev/macos-desktop/videos/image_seg_text/driver.mp4':
  Metadata:
    encoder         : Lavf61.7.100
  Stream #0:0: Video: h264 (avc1 / 0x31637661), yuv420p(tv, unknown/bt709/iec61966-2-1, progressive), 1024x654, q=2-31, 5 fps, 10240 tbn
      Metadata:
        encoder         : Lavc61.19.100 libx264
      Side data:
        cpb: bitrate max/min/avg: 0/0/0 buffer size: 0 vbv_delay: N/A
frame=   72 fps=0.0 q=23.0 size=       0KiB time=N/A bitrate=N/A speed=N/A    
[out#0/mp4 @ 0x600000f8c300] video:118KiB audio:0KiB subtitle:0KiB other streams:0KiB global headers:0KiB muxing overhead: 1.535095%
frame=   83 fps=0.0 q=-1.0 Lsize=     120KiB time=00:00:16.20 bitrate=  60.7kbits/s speed=26.3x    
[libx264 @ 0x13b608470] frame I:2     Avg QP:12.36  size: 43362
[libx264 @ 0x13b608470] frame P:22    Avg QP:16.11  size:  1299
[libx264 @ 0x13b608470] frame B:59    Avg QP:23.41  size:    87
[libx264 @ 0x13b608470] consecutive B-frames:  3.6%  4.8%  0.0% 91.6%
[libx264 @ 0x13b608470] mb I  I16..4: 43.4% 25.1% 31.5%
[libx264 @ 0x13b608470] mb P  I16..4:  0.7%  0.2%  0.6%  P16..4:  0.8%  0.2%  0.1%  0.0%  0.0%    skip:97.3%
[libx264 @ 0x13b608470] mb B  I16..4:  0.1%  0.1%  0.0%  B16..8:  1.0%  0.1%  0.0%  direct: 0.1%  skip:98.7%  L0:43.3% L1:56.5% BI: 0.2%
[libx264 @ 0x13b608470] 8x8 transform intra:23.9% inter:64.4%
[libx264 @ 0x13b608470] coded y,uvDC,uvAC intra: 35.4% 17.0% 13.9% inter: 0.1% 0.2% 0.0%
[libx264 @ 0x13b608470] i16 v,h,dc,p: 50% 44%  0%  6%
[libx264 @ 0x13b608470] i8 v,h,dc,ddl,ddr,vr,hd,vl,hu: 52% 17% 26%  0%  2%  1%  1%  0%  1%
[libx264 @ 0x13b608470] i4 v,h,dc,ddl,ddr,vr,hd,vl,hu: 42% 33% 12%  2%  3%  2%  3%  2%  3%
[libx264 @ 0x13b608470] i8c dc,h,v,p: 73% 15%  7%  5%
[libx264 @ 0x13b608470] Weighted P-Frames: Y:0.0% UV:0.0%
[libx264 @ 0x13b608470] ref P L0: 72.4%  2.4% 22.7%  2.5%
[libx264 @ 0x13b608470] ref B L0: 75.4% 22.3%  2.3%
[libx264 @ 0x13b608470] ref B L1: 96.5%  3.5%
[libx264 @ 0x13b608470] kb/s:58.03
[ 761s]   videos/image_seg_text/driver.mp4 placed (frames 619..701)
[ 761s]   screenshots/image_seg_text_executed.png placed
ffmpeg version 7.1 Copyright (c) 2000-2024 the FFmpeg developers
  built with Apple clang version 13.1.6 (clang-1316.0.21.2.5)
  configuration: --prefix=/Volumes/tempdisk/sw --extra-cflags=-fno-stack-check --arch=arm64 --cc=/usr/bin/clang --enable-gpl --enable-libvmaf --enable-libopenjpeg --enable-libopus --enable-libmp3lame --enable-libx264 --enable-libx265 --enable-libvpx --enable-libwebp --enable-libass --enable-libfreetype --enable-fontconfig --enable-libtheora --enable-libvorbis --enable-libsnappy --enable-libaom --enable-libvidstab --enable-libzimg --enable-libsvtav1 --enable-libharfbuzz --enable-libkvazaar --pkg-config-flags=--static --enable-ffplay --enable-postproc --enable-neon --enable-runtime-cpudetect --disable-indev=qtkit --disable-indev=x11grab_xcb
  libavutil      59. 39.100 / 59. 39.100
  libavcodec     61. 19.100 / 61. 19.100
  libavformat    61.  7.100 / 61.  7.100
  libavdevice    61.  3.100 / 61.  3.100
  libavfilter    10.  4.100 / 10.  4.100
  libswscale      8.  3.100 /  8.  3.100
  libswresample   5.  3.100 /  5.  3.100
  libpostproc    58.  3.100 / 58.  3.100
Input #0, image2, from '/Users/runner/work/comfy-gpu-ci/comfy-gpu-ci/comfy-test-logs/SAM3-0245/dev/macos-desktop/debug/electron_inspect/frames/frame_%06d.png':
  Duration: 00:00:16.20, start: 0.000000, bitrate: N/A
  Stream #0:0: Video: png, rgb24(pc, gbr/bt709/iec61966-2-1), 1024x653, 5 fps, 5 tbr, 5 tbn
Stream mapping:
  Stream #0:0 -> #0:0 (png (native) -> h264 (libx264))
Press [q] to stop, [?] for help
[libx264 @ 0x135e08220] using cpu capabilities: ARMv8 NEON
[libx264 @ 0x135e08220] profile High, level 3.1, 4:2:0, 8-bit
[libx264 @ 0x135e08220] 264 - core 164 r3190 7ed753b - H.264/MPEG-4 AVC codec - Copyleft 2003-2024 - http://www.videolan.org/x264.html - options: cabac=1 ref=3 deblock=1:0:0 analyse=0x3:0x113 me=hex subme=7 psy=1 psy_rd=1.00:0.00 mixed_ref=1 me_range=16 chroma_me=1 trellis=1 8x8dct=1 cqm=0 deadzone=21,11 fast_pskip=1 chroma_qp_offset=-2 threads=4 lookahead_threads=1 sliced_threads=0 nr=0 decimate=1 interlaced=0 bluray_compat=0 constrained_intra=0 bframes=3 b_pyramid=2 b_adapt=1 b_bias=0 direct=1 weightb=1 open_gop=0 weightp=2 keyint=250 keyint_min=5 scenecut=40 intra_refresh=0 rc_lookahead=40 rc=crf mbtree=1 crf=23.0 qcomp=0.60 qpmin=0 qpmax=69 qpstep=4 ip_ratio=1.40 aq=1:1.00
Output #0, mp4, to '/Users/runner/work/comfy-gpu-ci/comfy-gpu-ci/comfy-test-logs/SAM3-0245/dev/macos-desktop/videos/scene_seg/driver.mp4':
  Metadata:
    encoder         : Lavf61.7.100
  Stream #0:0: Video: h264 (avc1 / 0x31637661), yuv420p(tv, unknown/bt709/iec61966-2-1, progressive), 1024x654, q=2-31, 5 fps, 10240 tbn
      Metadata:
        encoder         : Lavc61.19.100 libx264
      Side data:
        cpb: bitrate max/min/avg: 0/0/0 buffer size: 0 vbv_delay: N/A
[out#0/mp4 @ 0x600000598300] video:126KiB audio:0KiB subtitle:0KiB other streams:0KiB global headers:0KiB muxing overhead: 1.419316%
frame=   81 fps=0.0 q=-1.0 Lsize=     127KiB time=00:00:15.80 bitrate=  66.1kbits/s speed=  30x    
[libx264 @ 0x135e08220] frame I:2     Avg QP:11.75  size: 33151
[libx264 @ 0x135e08220] frame P:22    Avg QP:16.17  size:  2513
[libx264 @ 0x135e08220] frame B:57    Avg QP:22.02  size:   113
[libx264 @ 0x135e08220] consecutive B-frames:  4.9%  2.5%  3.7% 88.9%
[libx264 @ 0x135e08220] mb I  I16..4: 52.4% 23.3% 24.3%
[libx264 @ 0x135e08220] mb P  I16..4:  1.0%  0.3%  0.9%  P16..4:  1.3%  0.4%  0.2%  0.0%  0.0%    skip:95.9%
[libx264 @ 0x135e08220] mb B  I16..4:  0.1%  0.1%  0.0%  B16..8:  1.8%  0.1%  0.0%  direct: 0.0%  skip:98.0%  L0:43.0% L1:56.7% BI: 0.3%
[libx264 @ 0x135e08220] 8x8 transform intra:22.2% inter:30.5%
[libx264 @ 0x135e08220] coded y,uvDC,uvAC intra: 18.5% 17.4% 13.5% inter: 0.2% 0.2% 0.1%
[libx264 @ 0x135e08220] i16 v,h,dc,p: 62% 35%  0%  2%
[libx264 @ 0x135e08220] i8 v,h,dc,ddl,ddr,vr,hd,vl,hu: 65% 14% 18%  0%  1%  1%  1%  0%  1%
[libx264 @ 0x135e08220] i4 v,h,dc,ddl,ddr,vr,hd,vl,hu: 32% 34% 17%  2%  3%  2%  3%  2%  4%
[libx264 @ 0x135e08220] i8c dc,h,v,p: 71% 17%  9%  3%
[libx264 @ 0x135e08220] Weighted P-Frames: Y:0.0% UV:0.0%
[libx264 @ 0x135e08220] ref P L0: 70.7%  4.4% 17.3%  7.6%
[libx264 @ 0x135e08220] ref B L0: 81.3% 14.6%  4.1%
[libx264 @ 0x135e08220] ref B L1: 96.0%  4.0%
[libx264 @ 0x135e08220] kb/s:63.23
[ 762s]   videos/scene_seg/driver.mp4 placed (frames 738..818)
[ 762s]   screenshots/scene_seg_executed.png placed
[ 762s]   removed /Users/runner/work/comfy-gpu-ci/comfy-gpu-ci/comfy-test-logs/SAM3-0245/dev/macos-desktop/debug/electron_inspect/frames after successful encode
